<svg xmlns="http://www.w3.org/2000/svg" viewBox="0 0 800 1040" width="800" height="1040">
  <title>Treera — Stacked Lockup — dark</title>
  <rect width="800" height="1040" fill="#070A08"/>
  <path d="M400,232 A184,184 0 0,1 584,416" fill="none" stroke="#5AAF78" stroke-width="1.44" opacity="0.75" stroke-linecap="round"/>
  <path d="M584,416 A184,184 0 0,1 400,600" fill="none" stroke="#5AAF78" stroke-width="1.44" opacity="0.5" stroke-linecap="round"/>
  <path d="M400,600 A184,184 0 0,1 216,416" fill="none" stroke="#1C3D2A" stroke-width="1.44" stroke-linecap="round"/>
  <path d="M216,416 A184,184 0 0,1 400,232" fill="none" stroke="#1C3D2A" stroke-width="1.44" stroke-linecap="round"/>
  <line x1="400" y1="230" x2="400" y2="214.2" stroke="#5AAF78" stroke-width="1.84" stroke-linecap="round" opacity="0.65"/>
  <line x1="586" y1="416" x2="601.8" y2="416" stroke="#5AAF78" stroke-width="1.84" stroke-linecap="round" opacity="0.55"/>
  <line x1="400" y1="602" x2="400" y2="617.8" stroke="#5AAF78" stroke-width="1.84" stroke-linecap="round" opacity="0.45"/>
  <line x1="214" y1="416" x2="198.2" y2="416" stroke="#5AAF78" stroke-width="1.84" stroke-linecap="round" opacity="0.40"/>
  <circle cx="400" cy="416" r="127.9" fill="none" stroke="#5AAF78" stroke-width="0.82" stroke-dasharray="3,7" opacity="0.20"/>
  <polygon points="400,291.6 524.4,416 400,540.4 275.6,416" fill="none" stroke="#5AAF78" stroke-width="0.72" opacity="0.18"/>
  <line x1="400" y1="292.0" x2="316.0" y2="352.0" stroke="#5AAF78" stroke-width="0.72" opacity="0.3"/>
  <line x1="400" y1="292.0" x2="484.0" y2="352.0" stroke="#5AAF78" stroke-width="0.72" opacity="0.3"/>
  <line x1="316.0" y1="352.0" x2="232.0" y2="412.0" stroke="#5AAF78" stroke-width="0.72" opacity="0.18"/>
  <line x1="316.0" y1="352.0" x2="400" y2="408.0" stroke="#5AAF78" stroke-width="0.72" opacity="0.26"/>
  <line x1="484.0" y1="352.0" x2="400" y2="408.0" stroke="#5AAF78" stroke-width="0.72" opacity="0.26"/>
  <line x1="484.0" y1="352.0" x2="568.0" y2="412.0" stroke="#5AAF78" stroke-width="0.72" opacity="0.18"/>
  <line x1="400" y1="424.0" x2="316.0" y2="480.0" stroke="#5AAF78" stroke-width="0.72" opacity="0.26"/>
  <line x1="400" y1="424.0" x2="484.0" y2="480.0" stroke="#5AAF78" stroke-width="0.72" opacity="0.26"/>
  <line x1="316.0" y1="480.0" x2="400" y2="540.0" stroke="#5AAF78" stroke-width="0.72" opacity="0.3"/>
  <line x1="484.0" y1="480.0" x2="400" y2="540.0" stroke="#5AAF78" stroke-width="0.72" opacity="0.3"/>
  <line x1="400" y1="292.0" x2="400" y2="408.0" stroke="#5AAF78" stroke-width="0.72" opacity="0.2"/>
  <line x1="400" y1="424.0" x2="400" y2="540.0" stroke="#5AAF78" stroke-width="0.72" opacity="0.18"/>
  <line x1="240.0" y1="416" x2="392.0" y2="416" stroke="#5AAF78" stroke-width="0.72" opacity="0.18"/>
  <line x1="408.0" y1="416" x2="560.0" y2="416" stroke="#5AAF78" stroke-width="0.72" opacity="0.18"/>
  <circle cx="400" cy="292.0" r="11.0" fill="#5AAF78"/>
  <circle cx="316.0" cy="352.0" r="8.0" fill="#5AAF78" opacity="0.78"/>
  <circle cx="484.0" cy="352.0" r="8.0" fill="#5AAF78" opacity="0.78"/>
  <circle cx="232.0" cy="416" r="6.0" fill="#5AAF78" opacity="0.4"/>
  <circle cx="316.0" cy="416" r="8.0" fill="#5AAF78" opacity="0.65"/>
  <circle cx="400" cy="416" r="36.0" fill="#5AAF78"/>
  <circle cx="484.0" cy="416" r="8.0" fill="#5AAF78" opacity="0.65"/>
  <circle cx="568.0" cy="416" r="6.0" fill="#5AAF78" opacity="0.4"/>
  <circle cx="316.0" cy="480.0" r="8.0" fill="#5AAF78" opacity="0.72"/>
  <circle cx="484.0" cy="480.0" r="8.0" fill="#5AAF78" opacity="0.72"/>
  <circle cx="400" cy="540.0" r="11.0" fill="#5AAF78" opacity="0.92"/>
  <circle cx="400" cy="232" r="8.0" fill="#5AAF78" opacity="0.65"/>
  <circle cx="584" cy="416" r="8.0" fill="#5AAF78" opacity="0.58"/>
  <circle cx="400" cy="600" r="8.0" fill="#5AAF78" opacity="0.52"/>
  <circle cx="216" cy="416" r="8.0" fill="#5AAF78" opacity="0.5"/>
  <line x1="260" y1="697" x2="540" y2="697" stroke="#1C3D2A" stroke-width="1.2"/>
  <text x="400" y="749" text-anchor="middle" font-family="'Cormorant Garamond',Georgia,serif" font-size="104" font-weight="300" letter-spacing="32" fill="#F5F5F0">TREERA</text>
  <text x="400" y="822" text-anchor="middle" font-family="'DM Mono','Courier New',monospace" font-size="18" letter-spacing="10" fill="#5AAF78">IMPACT ECOSYSTEM</text>
  <line x1="260" y1="894" x2="540" y2="894" stroke="#1C3D2A" stroke-width="0.8"/>
  <text x="400" y="957" text-anchor="middle" font-family="'DM Mono','Courier New',monospace" font-size="16" letter-spacing="9" fill="#1C3D2A">EST. 2024 — İSTANBUL</text>
</svg>