<svg xmlns="http://www.w3.org/2000/svg" viewBox="0 0 800 800" width="800" height="800">
  <title>Treera — Mark — dark</title>
  <rect width="800" height="800" fill="#070A08"/>
  <path d="M400,216 A184,184 0 0,1 584,400" fill="none" stroke="#5AAF78" stroke-width="1.44" opacity="0.75" stroke-linecap="round"/>
  <path d="M584,400 A184,184 0 0,1 400,584" fill="none" stroke="#5AAF78" stroke-width="1.44" opacity="0.5" stroke-linecap="round"/>
  <path d="M400,584 A184,184 0 0,1 216,400" fill="none" stroke="#1C3D2A" stroke-width="1.44" stroke-linecap="round"/>
  <path d="M216,400 A184,184 0 0,1 400,216" fill="none" stroke="#1C3D2A" stroke-width="1.44" stroke-linecap="round"/>
  <line x1="400" y1="214" x2="400" y2="198.2" stroke="#5AAF78" stroke-width="1.84" stroke-linecap="round" opacity="0.65"/>
  <line x1="586" y1="400" x2="601.8" y2="400" stroke="#5AAF78" stroke-width="1.84" stroke-linecap="round" opacity="0.55"/>
  <line x1="400" y1="586" x2="400" y2="601.8" stroke="#5AAF78" stroke-width="1.84" stroke-linecap="round" opacity="0.45"/>
  <line x1="214" y1="400" x2="198.2" y2="400" stroke="#5AAF78" stroke-width="1.84" stroke-linecap="round" opacity="0.40"/>
  <circle cx="400" cy="400" r="127.9" fill="none" stroke="#5AAF78" stroke-width="0.82" stroke-dasharray="3,7" opacity="0.20"/>
  <polygon points="400,275.6 524.4,400 400,524.4 275.6,400" fill="none" stroke="#5AAF78" stroke-width="0.72" opacity="0.18"/>
  <line x1="400" y1="276.0" x2="316.0" y2="336.0" stroke="#5AAF78" stroke-width="0.72" opacity="0.3"/>
  <line x1="400" y1="276.0" x2="484.0" y2="336.0" stroke="#5AAF78" stroke-width="0.72" opacity="0.3"/>
  <line x1="316.0" y1="336.0" x2="232.0" y2="396.0" stroke="#5AAF78" stroke-width="0.72" opacity="0.18"/>
  <line x1="316.0" y1="336.0" x2="400" y2="392.0" stroke="#5AAF78" stroke-width="0.72" opacity="0.26"/>
  <line x1="484.0" y1="336.0" x2="400" y2="392.0" stroke="#5AAF78" stroke-width="0.72" opacity="0.26"/>
  <line x1="484.0" y1="336.0" x2="568.0" y2="396.0" stroke="#5AAF78" stroke-width="0.72" opacity="0.18"/>
  <line x1="400" y1="408.0" x2="316.0" y2="464.0" stroke="#5AAF78" stroke-width="0.72" opacity="0.26"/>
  <line x1="400" y1="408.0" x2="484.0" y2="464.0" stroke="#5AAF78" stroke-width="0.72" opacity="0.26"/>
  <line x1="316.0" y1="464.0" x2="400" y2="524.0" stroke="#5AAF78" stroke-width="0.72" opacity="0.3"/>
  <line x1="484.0" y1="464.0" x2="400" y2="524.0" stroke="#5AAF78" stroke-width="0.72" opacity="0.3"/>
  <line x1="400" y1="276.0" x2="400" y2="392.0" stroke="#5AAF78" stroke-width="0.72" opacity="0.2"/>
  <line x1="400" y1="408.0" x2="400" y2="524.0" stroke="#5AAF78" stroke-width="0.72" opacity="0.18"/>
  <line x1="240.0" y1="400" x2="392.0" y2="400" stroke="#5AAF78" stroke-width="0.72" opacity="0.18"/>
  <line x1="408.0" y1="400" x2="560.0" y2="400" stroke="#5AAF78" stroke-width="0.72" opacity="0.18"/>
  <circle cx="400" cy="276.0" r="11.0" fill="#5AAF78"/>
  <circle cx="316.0" cy="336.0" r="8.0" fill="#5AAF78" opacity="0.78"/>
  <circle cx="484.0" cy="336.0" r="8.0" fill="#5AAF78" opacity="0.78"/>
  <circle cx="232.0" cy="400" r="6.0" fill="#5AAF78" opacity="0.4"/>
  <circle cx="316.0" cy="400" r="8.0" fill="#5AAF78" opacity="0.65"/>
  <circle cx="400" cy="400" r="36.0" fill="#5AAF78"/>
  <circle cx="484.0" cy="400" r="8.0" fill="#5AAF78" opacity="0.65"/>
  <circle cx="568.0" cy="400" r="6.0" fill="#5AAF78" opacity="0.4"/>
  <circle cx="316.0" cy="464.0" r="8.0" fill="#5AAF78" opacity="0.72"/>
  <circle cx="484.0" cy="464.0" r="8.0" fill="#5AAF78" opacity="0.72"/>
  <circle cx="400" cy="524.0" r="11.0" fill="#5AAF78" opacity="0.92"/>
  <circle cx="400" cy="216" r="8.0" fill="#5AAF78" opacity="0.65"/>
  <circle cx="584" cy="400" r="8.0" fill="#5AAF78" opacity="0.58"/>
  <circle cx="400" cy="584" r="8.0" fill="#5AAF78" opacity="0.52"/>
  <circle cx="216" cy="400" r="8.0" fill="#5AAF78" opacity="0.5"/>
</svg>