<svg xmlns="http://www.w3.org/2000/svg" viewBox="0 0 64 64" width="64" height="64">
  <title>Treera Favicon — light</title>
  <rect width="64" height="64" fill="#F0F5F1" rx="8"/>
  <path d="M32,8 A24,24 0 0,1 56,32" fill="none" stroke="#2A5A3E" stroke-width="1.28" opacity="0.75" stroke-linecap="round"/>
  <path d="M56,32 A24,24 0 0,1 32,56" fill="none" stroke="#2A5A3E" stroke-width="1.28" opacity="0.5" stroke-linecap="round"/>
  <path d="M32,56 A24,24 0 0,1 8,32" fill="none" stroke="#C8E0CC" stroke-width="1.28" stroke-linecap="round"/>
  <path d="M8,32 A24,24 0 0,1 32,8" fill="none" stroke="#C8E0CC" stroke-width="1.28" stroke-linecap="round"/>
  <line x1="32" y1="6" x2="32" y2="5.7" stroke="#2A5A3E" stroke-width="1.64" stroke-linecap="round" opacity="0.65"/>
  <line x1="58" y1="32" x2="58.3" y2="32" stroke="#2A5A3E" stroke-width="1.64" stroke-linecap="round" opacity="0.55"/>
  <line x1="32" y1="58" x2="32" y2="58.3" stroke="#2A5A3E" stroke-width="1.64" stroke-linecap="round" opacity="0.45"/>
  <line x1="6" y1="32" x2="5.7" y2="32" stroke="#2A5A3E" stroke-width="1.64" stroke-linecap="round" opacity="0.40"/>
  <circle cx="32" cy="32" r="16.7" fill="none" stroke="#2A5A3E" stroke-width="0.73" stroke-dasharray="3,7" opacity="0.20"/>
  <polygon points="32,15.8 48.2,32 32,48.2 15.8,32" fill="none" stroke="#2A5A3E" stroke-width="0.64" opacity="0.18"/>
  <line x1="32" y1="15.829999999999998" x2="21.04" y2="23.65" stroke="#2A5A3E" stroke-width="0.64" opacity="0.3"/>
  <line x1="32" y1="15.829999999999998" x2="42.96" y2="23.65" stroke="#2A5A3E" stroke-width="0.64" opacity="0.3"/>
  <line x1="21.04" y1="23.65" x2="10.09" y2="31.48" stroke="#2A5A3E" stroke-width="0.64" opacity="0.18"/>
  <line x1="21.04" y1="23.65" x2="32" y2="30.96" stroke="#2A5A3E" stroke-width="0.64" opacity="0.26"/>
  <line x1="42.96" y1="23.65" x2="32" y2="30.96" stroke="#2A5A3E" stroke-width="0.64" opacity="0.26"/>
  <line x1="42.96" y1="23.65" x2="53.91" y2="31.48" stroke="#2A5A3E" stroke-width="0.64" opacity="0.18"/>
  <line x1="32" y1="33.04" x2="21.04" y2="40.35" stroke="#2A5A3E" stroke-width="0.64" opacity="0.26"/>
  <line x1="32" y1="33.04" x2="42.96" y2="40.35" stroke="#2A5A3E" stroke-width="0.64" opacity="0.26"/>
  <line x1="21.04" y1="40.35" x2="32" y2="48.17" stroke="#2A5A3E" stroke-width="0.64" opacity="0.3"/>
  <line x1="42.96" y1="40.35" x2="32" y2="48.17" stroke="#2A5A3E" stroke-width="0.64" opacity="0.3"/>
  <line x1="32" y1="15.829999999999998" x2="32" y2="30.96" stroke="#2A5A3E" stroke-width="0.64" opacity="0.2"/>
  <line x1="32" y1="33.04" x2="32" y2="48.17" stroke="#2A5A3E" stroke-width="0.64" opacity="0.18"/>
  <line x1="11.129999999999999" y1="32" x2="30.96" y2="32" stroke="#2A5A3E" stroke-width="0.64" opacity="0.18"/>
  <line x1="33.04" y1="32" x2="52.870000000000005" y2="32" stroke="#2A5A3E" stroke-width="0.64" opacity="0.18"/>
  <circle cx="32" cy="15.829999999999998" r="1.43" fill="#2A5A3E"/>
  <circle cx="21.04" cy="23.65" r="1.04" fill="#2A5A3E" opacity="0.78"/>
  <circle cx="42.96" cy="23.65" r="1.04" fill="#2A5A3E" opacity="0.78"/>
  <circle cx="10.09" cy="32" r="0.78" fill="#2A5A3E" opacity="0.4"/>
  <circle cx="21.04" cy="32" r="1.04" fill="#2A5A3E" opacity="0.65"/>
  <circle cx="32" cy="32" r="0.79" fill="#2A5A3E"/>
  <circle cx="42.96" cy="32" r="1.04" fill="#2A5A3E" opacity="0.65"/>
  <circle cx="53.91" cy="32" r="0.78" fill="#2A5A3E" opacity="0.4"/>
  <circle cx="21.04" cy="40.35" r="1.04" fill="#2A5A3E" opacity="0.72"/>
  <circle cx="42.96" cy="40.35" r="1.04" fill="#2A5A3E" opacity="0.72"/>
  <circle cx="32" cy="48.17" r="1.43" fill="#2A5A3E" opacity="0.92"/>
  <circle cx="32" cy="8" r="1.04" fill="#2A5A3E" opacity="0.65"/>
  <circle cx="56" cy="32" r="1.04" fill="#2A5A3E" opacity="0.58"/>
  <circle cx="32" cy="56" r="1.04" fill="#2A5A3E" opacity="0.52"/>
  <circle cx="8" cy="32" r="1.04" fill="#2A5A3E" opacity="0.5"/>
</svg>